G75*
G70*
%OFA0B0*%
%FSLAX24Y24*%
%IPPOS*%
%LPD*%
%AMOC8*
5,1,8,0,0,1.08239X$1,22.5*
%
%ADD10R,0.0925X0.0610*%
%ADD11R,0.0709X0.0354*%
%ADD12R,0.0591X0.0394*%
%ADD13C,0.0160*%
%ADD14R,0.1142X0.1142*%
%ADD15R,0.2363X0.2600*%
%ADD16R,0.0395X0.0946*%
%ADD17R,0.0671X0.0867*%
%ADD18R,0.0552X0.0552*%
%ADD19R,0.0631X0.0513*%
%ADD20R,0.0580X0.0330*%
%ADD21C,0.0080*%
%ADD22C,0.1280*%
%ADD23R,0.0820X0.0820*%
%ADD24C,0.0820*%
%ADD25R,0.1025X0.1025*%
%ADD26C,0.0476*%
%ADD27C,0.0640*%
%ADD28C,0.1025*%
D10*
X010163Y014841D03*
X011522Y014841D03*
D11*
X013126Y007292D03*
D12*
X014051Y007311D03*
D13*
X011689Y015382D02*
X011691Y015416D01*
X011697Y015450D01*
X011707Y015483D01*
X011720Y015514D01*
X011738Y015544D01*
X011758Y015572D01*
X011782Y015597D01*
X011808Y015619D01*
X011836Y015637D01*
X011867Y015653D01*
X011899Y015665D01*
X011933Y015673D01*
X011967Y015677D01*
X012001Y015677D01*
X012035Y015673D01*
X012069Y015665D01*
X012101Y015653D01*
X012131Y015637D01*
X012160Y015619D01*
X012186Y015597D01*
X012210Y015572D01*
X012230Y015544D01*
X012248Y015514D01*
X012261Y015483D01*
X012271Y015450D01*
X012277Y015416D01*
X012279Y015382D01*
X012277Y015348D01*
X012271Y015314D01*
X012261Y015281D01*
X012248Y015250D01*
X012230Y015220D01*
X012210Y015192D01*
X012186Y015167D01*
X012160Y015145D01*
X012132Y015127D01*
X012101Y015111D01*
X012069Y015099D01*
X012035Y015091D01*
X012001Y015087D01*
X011967Y015087D01*
X011933Y015091D01*
X011899Y015099D01*
X011867Y015111D01*
X011836Y015127D01*
X011808Y015145D01*
X011782Y015167D01*
X011758Y015192D01*
X011738Y015220D01*
X011720Y015250D01*
X011707Y015281D01*
X011697Y015314D01*
X011691Y015348D01*
X011689Y015382D01*
X009406Y015362D02*
X009408Y015396D01*
X009414Y015430D01*
X009424Y015463D01*
X009437Y015494D01*
X009455Y015524D01*
X009475Y015552D01*
X009499Y015577D01*
X009525Y015599D01*
X009553Y015617D01*
X009584Y015633D01*
X009616Y015645D01*
X009650Y015653D01*
X009684Y015657D01*
X009718Y015657D01*
X009752Y015653D01*
X009786Y015645D01*
X009818Y015633D01*
X009848Y015617D01*
X009877Y015599D01*
X009903Y015577D01*
X009927Y015552D01*
X009947Y015524D01*
X009965Y015494D01*
X009978Y015463D01*
X009988Y015430D01*
X009994Y015396D01*
X009996Y015362D01*
X009994Y015328D01*
X009988Y015294D01*
X009978Y015261D01*
X009965Y015230D01*
X009947Y015200D01*
X009927Y015172D01*
X009903Y015147D01*
X009877Y015125D01*
X009849Y015107D01*
X009818Y015091D01*
X009786Y015079D01*
X009752Y015071D01*
X009718Y015067D01*
X009684Y015067D01*
X009650Y015071D01*
X009616Y015079D01*
X009584Y015091D01*
X009553Y015107D01*
X009525Y015125D01*
X009499Y015147D01*
X009475Y015172D01*
X009455Y015200D01*
X009437Y015230D01*
X009424Y015261D01*
X009414Y015294D01*
X009408Y015328D01*
X009406Y015362D01*
X009406Y017941D02*
X009408Y017975D01*
X009414Y018009D01*
X009424Y018042D01*
X009437Y018073D01*
X009455Y018103D01*
X009475Y018131D01*
X009499Y018156D01*
X009525Y018178D01*
X009553Y018196D01*
X009584Y018212D01*
X009616Y018224D01*
X009650Y018232D01*
X009684Y018236D01*
X009718Y018236D01*
X009752Y018232D01*
X009786Y018224D01*
X009818Y018212D01*
X009848Y018196D01*
X009877Y018178D01*
X009903Y018156D01*
X009927Y018131D01*
X009947Y018103D01*
X009965Y018073D01*
X009978Y018042D01*
X009988Y018009D01*
X009994Y017975D01*
X009996Y017941D01*
X009994Y017907D01*
X009988Y017873D01*
X009978Y017840D01*
X009965Y017809D01*
X009947Y017779D01*
X009927Y017751D01*
X009903Y017726D01*
X009877Y017704D01*
X009849Y017686D01*
X009818Y017670D01*
X009786Y017658D01*
X009752Y017650D01*
X009718Y017646D01*
X009684Y017646D01*
X009650Y017650D01*
X009616Y017658D01*
X009584Y017670D01*
X009553Y017686D01*
X009525Y017704D01*
X009499Y017726D01*
X009475Y017751D01*
X009455Y017779D01*
X009437Y017809D01*
X009424Y017840D01*
X009414Y017873D01*
X009408Y017907D01*
X009406Y017941D01*
X011709Y017941D02*
X011711Y017975D01*
X011717Y018009D01*
X011727Y018042D01*
X011740Y018073D01*
X011758Y018103D01*
X011778Y018131D01*
X011802Y018156D01*
X011828Y018178D01*
X011856Y018196D01*
X011887Y018212D01*
X011919Y018224D01*
X011953Y018232D01*
X011987Y018236D01*
X012021Y018236D01*
X012055Y018232D01*
X012089Y018224D01*
X012121Y018212D01*
X012151Y018196D01*
X012180Y018178D01*
X012206Y018156D01*
X012230Y018131D01*
X012250Y018103D01*
X012268Y018073D01*
X012281Y018042D01*
X012291Y018009D01*
X012297Y017975D01*
X012299Y017941D01*
X012297Y017907D01*
X012291Y017873D01*
X012281Y017840D01*
X012268Y017809D01*
X012250Y017779D01*
X012230Y017751D01*
X012206Y017726D01*
X012180Y017704D01*
X012152Y017686D01*
X012121Y017670D01*
X012089Y017658D01*
X012055Y017650D01*
X012021Y017646D01*
X011987Y017646D01*
X011953Y017650D01*
X011919Y017658D01*
X011887Y017670D01*
X011856Y017686D01*
X011828Y017704D01*
X011802Y017726D01*
X011778Y017751D01*
X011758Y017779D01*
X011740Y017809D01*
X011727Y017840D01*
X011717Y017873D01*
X011711Y017907D01*
X011709Y017941D01*
D14*
X009110Y006662D03*
D15*
X010843Y016662D03*
D16*
X011291Y014181D03*
X011740Y014181D03*
X010394Y014181D03*
X009945Y014181D03*
D17*
X009917Y012272D03*
X009917Y011268D03*
X009917Y010284D03*
X011098Y010284D03*
X011098Y011268D03*
X011098Y012272D03*
D18*
X014051Y007725D03*
X014051Y006898D03*
D19*
X013126Y006898D03*
X013126Y007685D03*
D20*
X014091Y016363D03*
X014091Y016763D03*
D21*
X007535Y017585D02*
X007482Y017587D01*
X007429Y017593D01*
X007376Y017602D01*
X007325Y017616D01*
X007274Y017633D01*
X007225Y017654D01*
X007178Y017678D01*
X007132Y017706D01*
X007089Y017737D01*
X007048Y017771D01*
X007009Y017808D01*
X006974Y017848D01*
X006941Y017890D01*
X006912Y017935D01*
X006886Y017981D01*
X006863Y018029D01*
X006844Y018079D01*
X006829Y018130D01*
X006817Y018182D01*
X006809Y018235D01*
X006805Y018288D01*
X006805Y018342D01*
X006809Y018395D01*
X006817Y018448D01*
X006829Y018500D01*
X006844Y018551D01*
X006863Y018601D01*
X006886Y018649D01*
X006912Y018695D01*
X006941Y018740D01*
X006974Y018782D01*
X007009Y018822D01*
X007048Y018859D01*
X007089Y018893D01*
X007132Y018924D01*
X007178Y018952D01*
X007225Y018976D01*
X007274Y018997D01*
X007325Y019014D01*
X007376Y019028D01*
X007429Y019037D01*
X007482Y019043D01*
X007535Y019045D01*
X007588Y019043D01*
X007641Y019037D01*
X007694Y019028D01*
X007745Y019014D01*
X007796Y018997D01*
X007845Y018976D01*
X007892Y018952D01*
X007938Y018924D01*
X007981Y018893D01*
X008022Y018859D01*
X008061Y018822D01*
X008096Y018782D01*
X008129Y018740D01*
X008158Y018695D01*
X008184Y018649D01*
X008207Y018601D01*
X008226Y018551D01*
X008241Y018500D01*
X008253Y018448D01*
X008261Y018395D01*
X008265Y018342D01*
X008265Y018288D01*
X008261Y018235D01*
X008253Y018182D01*
X008241Y018130D01*
X008226Y018079D01*
X008207Y018029D01*
X008184Y017981D01*
X008158Y017935D01*
X008129Y017890D01*
X008096Y017848D01*
X008061Y017808D01*
X008022Y017771D01*
X007981Y017737D01*
X007938Y017706D01*
X007892Y017678D01*
X007845Y017654D01*
X007796Y017633D01*
X007745Y017616D01*
X007694Y017602D01*
X007641Y017593D01*
X007588Y017587D01*
X007535Y017585D01*
X013776Y005482D02*
X013723Y005480D01*
X013670Y005474D01*
X013617Y005465D01*
X013566Y005451D01*
X013515Y005434D01*
X013466Y005413D01*
X013419Y005389D01*
X013373Y005361D01*
X013330Y005330D01*
X013289Y005296D01*
X013250Y005259D01*
X013215Y005219D01*
X013182Y005177D01*
X013153Y005132D01*
X013127Y005086D01*
X013104Y005038D01*
X013085Y004988D01*
X013070Y004937D01*
X013058Y004885D01*
X013050Y004832D01*
X013046Y004779D01*
X013046Y004725D01*
X013050Y004672D01*
X013058Y004619D01*
X013070Y004567D01*
X013085Y004516D01*
X013104Y004466D01*
X013127Y004418D01*
X013153Y004372D01*
X013182Y004327D01*
X013215Y004285D01*
X013250Y004245D01*
X013289Y004208D01*
X013330Y004174D01*
X013373Y004143D01*
X013419Y004115D01*
X013466Y004091D01*
X013515Y004070D01*
X013566Y004053D01*
X013617Y004039D01*
X013670Y004030D01*
X013723Y004024D01*
X013776Y004022D01*
X013829Y004024D01*
X013882Y004030D01*
X013935Y004039D01*
X013986Y004053D01*
X014037Y004070D01*
X014086Y004091D01*
X014133Y004115D01*
X014179Y004143D01*
X014222Y004174D01*
X014263Y004208D01*
X014302Y004245D01*
X014337Y004285D01*
X014370Y004327D01*
X014399Y004372D01*
X014425Y004418D01*
X014448Y004466D01*
X014467Y004516D01*
X014482Y004567D01*
X014494Y004619D01*
X014502Y004672D01*
X014506Y004725D01*
X014506Y004779D01*
X014502Y004832D01*
X014494Y004885D01*
X014482Y004937D01*
X014467Y004988D01*
X014448Y005038D01*
X014425Y005086D01*
X014399Y005132D01*
X014370Y005177D01*
X014337Y005219D01*
X014302Y005259D01*
X014263Y005296D01*
X014222Y005330D01*
X014179Y005361D01*
X014133Y005389D01*
X014086Y005413D01*
X014037Y005434D01*
X013986Y005451D01*
X013935Y005465D01*
X013882Y005474D01*
X013829Y005480D01*
X013776Y005482D01*
D22*
X013776Y004752D03*
X007535Y018315D03*
D23*
X014130Y013315D03*
D24*
X014130Y012315D03*
X014130Y011315D03*
X014130Y010315D03*
D25*
X009110Y006662D03*
D26*
X011827Y011268D03*
X011295Y013177D03*
X010370Y013158D03*
X009366Y012961D03*
D27*
X014091Y015658D03*
X014091Y017449D03*
D28*
X009110Y005284D03*
X010311Y004831D03*
X011492Y006662D03*
M02*
