%
M48
M72
T01C0.0118
T02C0.0236
T03C0.0315
T04C0.0400
T05C0.0630
T06C0.1200
%
T01
X12378Y9693
X9248Y16917
X9248Y17252
X10843Y18335
X12437Y17292
X12437Y16957
T02
X11295Y13177
X10370Y13158
X9366Y12961
X11827Y11268
T03
X14091Y15658
X14091Y17449
T04
X14130Y13315
X14130Y12315
X14130Y11315
X14130Y10315
T05
X9110Y5284
X9110Y6662
X10311Y4831
X11492Y6662
T06
X13776Y4752
X7535Y18315
M30
