G75*
G70*
%OFA0B0*%
%FSLAX24Y24*%
%IPPOS*%
%LPD*%
%AMOC8*
5,1,8,0,0,1.08239X$1,22.5*
%
%ADD10C,0.0160*%
%ADD11C,0.0000*%
D10*
X006374Y003571D02*
X013402Y003571D01*
X013479Y003573D01*
X013556Y003579D01*
X013633Y003588D01*
X013709Y003601D01*
X013785Y003618D01*
X013859Y003639D01*
X013933Y003663D01*
X014005Y003691D01*
X014075Y003722D01*
X014144Y003757D01*
X014212Y003795D01*
X014277Y003836D01*
X014340Y003881D01*
X014401Y003929D01*
X014460Y003979D01*
X014516Y004032D01*
X014569Y004088D01*
X014619Y004147D01*
X014667Y004208D01*
X014712Y004271D01*
X014753Y004336D01*
X014791Y004404D01*
X014826Y004473D01*
X014857Y004543D01*
X014885Y004615D01*
X014909Y004689D01*
X014930Y004763D01*
X014947Y004839D01*
X014960Y004915D01*
X014969Y004992D01*
X014975Y005069D01*
X014977Y005146D01*
X014976Y005146D02*
X015016Y019496D01*
X007929Y019496D01*
X007852Y019494D01*
X007775Y019488D01*
X007698Y019479D01*
X007622Y019466D01*
X007546Y019449D01*
X007472Y019428D01*
X007398Y019404D01*
X007326Y019376D01*
X007256Y019345D01*
X007187Y019310D01*
X007119Y019272D01*
X007054Y019231D01*
X006991Y019186D01*
X006930Y019138D01*
X006871Y019088D01*
X006815Y019035D01*
X006762Y018979D01*
X006712Y018920D01*
X006664Y018859D01*
X006619Y018796D01*
X006578Y018731D01*
X006540Y018663D01*
X006505Y018594D01*
X006474Y018524D01*
X006446Y018452D01*
X006422Y018378D01*
X006401Y018304D01*
X006384Y018228D01*
X006371Y018152D01*
X006362Y018075D01*
X006356Y017998D01*
X006354Y017921D01*
X006374Y003571D01*
D11*
X013176Y004752D02*
X013178Y004801D01*
X013184Y004849D01*
X013194Y004897D01*
X013208Y004944D01*
X013225Y004990D01*
X013246Y005034D01*
X013271Y005076D01*
X013299Y005116D01*
X013331Y005154D01*
X013365Y005189D01*
X013402Y005221D01*
X013441Y005250D01*
X013483Y005276D01*
X013527Y005298D01*
X013572Y005316D01*
X013619Y005331D01*
X013666Y005342D01*
X013715Y005349D01*
X013764Y005352D01*
X013813Y005351D01*
X013861Y005346D01*
X013910Y005337D01*
X013957Y005324D01*
X014003Y005307D01*
X014047Y005287D01*
X014090Y005263D01*
X014131Y005236D01*
X014169Y005205D01*
X014205Y005172D01*
X014237Y005136D01*
X014267Y005097D01*
X014294Y005056D01*
X014317Y005012D01*
X014336Y004967D01*
X014352Y004921D01*
X014364Y004874D01*
X014372Y004825D01*
X014376Y004776D01*
X014376Y004728D01*
X014372Y004679D01*
X014364Y004630D01*
X014352Y004583D01*
X014336Y004537D01*
X014317Y004492D01*
X014294Y004448D01*
X014267Y004407D01*
X014237Y004368D01*
X014205Y004332D01*
X014169Y004299D01*
X014131Y004268D01*
X014090Y004241D01*
X014047Y004217D01*
X014003Y004197D01*
X013957Y004180D01*
X013910Y004167D01*
X013861Y004158D01*
X013813Y004153D01*
X013764Y004152D01*
X013715Y004155D01*
X013666Y004162D01*
X013619Y004173D01*
X013572Y004188D01*
X013527Y004206D01*
X013483Y004228D01*
X013441Y004254D01*
X013402Y004283D01*
X013365Y004315D01*
X013331Y004350D01*
X013299Y004388D01*
X013271Y004428D01*
X013246Y004470D01*
X013225Y004514D01*
X013208Y004560D01*
X013194Y004607D01*
X013184Y004655D01*
X013178Y004703D01*
X013176Y004752D01*
X006935Y018315D02*
X006937Y018364D01*
X006943Y018412D01*
X006953Y018460D01*
X006967Y018507D01*
X006984Y018553D01*
X007005Y018597D01*
X007030Y018639D01*
X007058Y018679D01*
X007090Y018717D01*
X007124Y018752D01*
X007161Y018784D01*
X007200Y018813D01*
X007242Y018839D01*
X007286Y018861D01*
X007331Y018879D01*
X007378Y018894D01*
X007425Y018905D01*
X007474Y018912D01*
X007523Y018915D01*
X007572Y018914D01*
X007620Y018909D01*
X007669Y018900D01*
X007716Y018887D01*
X007762Y018870D01*
X007806Y018850D01*
X007849Y018826D01*
X007890Y018799D01*
X007928Y018768D01*
X007964Y018735D01*
X007996Y018699D01*
X008026Y018660D01*
X008053Y018619D01*
X008076Y018575D01*
X008095Y018530D01*
X008111Y018484D01*
X008123Y018437D01*
X008131Y018388D01*
X008135Y018339D01*
X008135Y018291D01*
X008131Y018242D01*
X008123Y018193D01*
X008111Y018146D01*
X008095Y018100D01*
X008076Y018055D01*
X008053Y018011D01*
X008026Y017970D01*
X007996Y017931D01*
X007964Y017895D01*
X007928Y017862D01*
X007890Y017831D01*
X007849Y017804D01*
X007806Y017780D01*
X007762Y017760D01*
X007716Y017743D01*
X007669Y017730D01*
X007620Y017721D01*
X007572Y017716D01*
X007523Y017715D01*
X007474Y017718D01*
X007425Y017725D01*
X007378Y017736D01*
X007331Y017751D01*
X007286Y017769D01*
X007242Y017791D01*
X007200Y017817D01*
X007161Y017846D01*
X007124Y017878D01*
X007090Y017913D01*
X007058Y017951D01*
X007030Y017991D01*
X007005Y018033D01*
X006984Y018077D01*
X006967Y018123D01*
X006953Y018170D01*
X006943Y018218D01*
X006937Y018266D01*
X006935Y018315D01*
M02*
