G75*
G70*
%OFA0B0*%
%FSLAX24Y24*%
%IPPOS*%
%LPD*%
%AMOC8*
5,1,8,0,0,1.08239X$1,22.5*
%
%ADD10R,0.2283X0.2520*%
%ADD11R,0.0315X0.0866*%
%ADD12R,0.0591X0.0787*%
%ADD13R,0.0472X0.0472*%
%ADD14R,0.0551X0.0433*%
%ADD15C,0.0080*%
%ADD16R,0.0500X0.0250*%
%ADD17R,0.0740X0.0740*%
%ADD18C,0.0740*%
%ADD19C,0.0278*%
%ADD20C,0.0100*%
%ADD21C,0.0160*%
%ADD22R,0.0945X0.0945*%
%ADD23C,0.0320*%
%ADD24C,0.0240*%
%ADD25C,0.0396*%
%ADD26C,0.0120*%
%ADD27C,0.0560*%
%ADD28C,0.0945*%
D10*
X010843Y016662D03*
D11*
X011291Y014181D03*
X011740Y014181D03*
X010394Y014181D03*
X009945Y014181D03*
D12*
X009917Y012272D03*
X009917Y011268D03*
X009917Y010284D03*
X011098Y010284D03*
X011098Y011268D03*
X011098Y012272D03*
D13*
X014051Y007725D03*
X014051Y006898D03*
D14*
X013126Y006898D03*
X013126Y007685D03*
D15*
X014091Y016413D02*
X014091Y016713D01*
D16*
X014091Y016763D03*
X014091Y016363D03*
D17*
X014130Y013315D03*
D18*
X014130Y012315D03*
X014130Y011315D03*
X014130Y010315D03*
D19*
X012378Y009693D03*
X009248Y016917D03*
X009248Y017252D03*
X010843Y018335D03*
X012437Y017292D03*
X012437Y016957D03*
D20*
X006885Y017481D02*
X006903Y004101D01*
X012942Y004101D01*
X012935Y004107D01*
X012797Y004347D01*
X012726Y004614D01*
X012726Y004890D01*
X012797Y005157D01*
X012935Y005397D01*
X013131Y005592D01*
X013370Y005731D01*
X013637Y005802D01*
X013914Y005802D01*
X014181Y005731D01*
X014420Y005592D01*
X014448Y005565D01*
X014460Y009938D01*
X014413Y009891D01*
X014229Y009815D01*
X014031Y009815D01*
X013847Y009891D01*
X013706Y010032D01*
X013691Y010068D01*
X012771Y010073D01*
X012722Y010073D01*
X012721Y010073D01*
X012721Y010073D01*
X012675Y010092D01*
X012630Y010111D01*
X012630Y010112D01*
X012629Y010112D01*
X012594Y010147D01*
X011801Y010940D01*
X011762Y010940D01*
X011641Y010990D01*
X011613Y011018D01*
X011524Y011018D01*
X011524Y010820D01*
X011493Y010790D01*
X011514Y010769D01*
X011534Y010735D01*
X011544Y010697D01*
X011544Y010334D01*
X011148Y010334D01*
X011148Y010234D01*
X011148Y009740D01*
X011414Y009740D01*
X011452Y009750D01*
X011486Y009770D01*
X011514Y009798D01*
X011534Y009832D01*
X011544Y009870D01*
X011544Y010234D01*
X011148Y010234D01*
X011048Y010234D01*
X010653Y010234D01*
X010653Y009870D01*
X010663Y009832D01*
X010683Y009798D01*
X010711Y009770D01*
X010745Y009750D01*
X010783Y009740D01*
X011048Y009740D01*
X011048Y010234D01*
X011048Y010334D01*
X010653Y010334D01*
X010653Y010697D01*
X010663Y010735D01*
X010683Y010769D01*
X010704Y010790D01*
X010673Y010820D01*
X010673Y011715D01*
X010728Y011770D01*
X010673Y011824D01*
X010673Y012501D01*
X010345Y012830D01*
X010305Y012830D01*
X010184Y012879D01*
X010092Y012972D01*
X010042Y013092D01*
X010042Y013223D01*
X010045Y013229D01*
X009682Y012867D01*
X009661Y012816D01*
X009867Y012816D01*
X009867Y012322D01*
X009867Y012222D01*
X009472Y012222D01*
X009472Y011858D01*
X009482Y011820D01*
X009502Y011786D01*
X009518Y011770D01*
X009502Y011754D01*
X009482Y011719D01*
X009472Y011681D01*
X009472Y011318D01*
X009867Y011318D01*
X009867Y011218D01*
X009472Y011218D01*
X009472Y010854D01*
X009482Y010816D01*
X009502Y010782D01*
X009523Y010762D01*
X009492Y010731D01*
X009492Y010574D01*
X009282Y010574D01*
X009282Y012467D01*
X009460Y012645D01*
X009472Y012650D01*
X009472Y012322D01*
X009867Y012322D01*
X009967Y012322D01*
X009967Y012816D01*
X010232Y012816D01*
X010271Y012805D01*
X010305Y012786D01*
X010333Y012758D01*
X010352Y012723D01*
X010363Y012685D01*
X010363Y012322D01*
X009967Y012322D01*
X009967Y012222D01*
X009967Y011318D01*
X009867Y011318D01*
X009867Y011812D01*
X009867Y012222D01*
X009967Y012222D01*
X010363Y012222D01*
X010363Y011858D01*
X010352Y011820D01*
X010333Y011786D01*
X010317Y011770D01*
X010333Y011754D01*
X010352Y011719D01*
X010363Y011681D01*
X010363Y011318D01*
X009967Y011318D01*
X009967Y011218D01*
X010363Y011218D01*
X010363Y010854D01*
X010352Y010816D01*
X010333Y010782D01*
X010312Y010762D01*
X010343Y010731D01*
X010343Y009911D01*
X011638Y008923D01*
X011656Y008915D01*
X011684Y008888D01*
X011714Y008865D01*
X011724Y008848D01*
X011738Y008834D01*
X011753Y008798D01*
X011772Y008765D01*
X011775Y008746D01*
X011782Y008727D01*
X011782Y008689D01*
X011787Y008651D01*
X011782Y008632D01*
X011782Y007194D01*
X011833Y007172D01*
X012003Y007003D01*
X012095Y006781D01*
X012095Y006542D01*
X012003Y006320D01*
X011833Y006151D01*
X011782Y006130D01*
X011782Y005777D01*
X011738Y005671D01*
X011656Y005589D01*
X011550Y005545D01*
X010079Y005545D01*
X009713Y005317D01*
X009713Y005164D01*
X009621Y004942D01*
X009452Y004773D01*
X009230Y004681D01*
X008990Y004681D01*
X008769Y004773D01*
X008600Y004942D01*
X008508Y005164D01*
X008508Y005403D01*
X008600Y005625D01*
X008769Y005794D01*
X008990Y005886D01*
X009230Y005886D01*
X009410Y005812D01*
X009815Y006063D01*
X009832Y006081D01*
X009863Y006094D01*
X009892Y006112D01*
X009916Y006115D01*
X009938Y006125D01*
X009972Y006125D01*
X010006Y006130D01*
X010029Y006125D01*
X011202Y006125D01*
X011202Y006130D01*
X011151Y006151D01*
X010981Y006320D01*
X010890Y006542D01*
X010890Y006781D01*
X010981Y007003D01*
X011151Y007172D01*
X011202Y007194D01*
X011202Y008526D01*
X009772Y009617D01*
X009753Y009624D01*
X009726Y009651D01*
X009696Y009675D01*
X009686Y009692D01*
X009672Y009706D01*
X009657Y009741D01*
X009646Y009760D01*
X009568Y009760D01*
X009492Y009836D01*
X009492Y009994D01*
X008935Y009994D01*
X008828Y010038D01*
X008746Y010119D01*
X008702Y010226D01*
X008702Y012644D01*
X008746Y012751D01*
X008828Y012833D01*
X009050Y013055D01*
X009088Y013147D01*
X009180Y013239D01*
X009272Y013277D01*
X009655Y013660D01*
X009655Y013971D01*
X009657Y013977D01*
X009657Y014508D01*
X009651Y014515D01*
X009651Y014943D01*
X009640Y014941D01*
X009640Y014941D01*
X009422Y015041D01*
X009422Y015041D01*
X009422Y015041D01*
X009293Y015243D01*
X009293Y015482D01*
X009422Y015684D01*
X009422Y015684D01*
X009422Y015684D01*
X009551Y015742D01*
X009551Y016612D01*
X010793Y016612D01*
X010793Y016712D01*
X010793Y018071D01*
X010088Y018071D01*
X010059Y018171D01*
X009878Y018328D01*
X009878Y018328D01*
X009640Y018362D01*
X009422Y018263D01*
X009422Y018263D01*
X009422Y018263D01*
X009293Y018061D01*
X009293Y017821D01*
X009422Y017620D01*
X009422Y017620D01*
X009551Y017561D01*
X009551Y016712D01*
X010793Y016712D01*
X010893Y016712D01*
X010893Y018071D01*
X011603Y018071D01*
X011726Y018263D01*
X011726Y018263D01*
X011943Y018362D01*
X011943Y018362D01*
X012181Y018328D01*
X012181Y018328D01*
X012362Y018171D01*
X012362Y018171D01*
X012429Y017941D01*
X012362Y017711D01*
X012362Y017711D01*
X012181Y017554D01*
X012181Y017554D01*
X012134Y017548D01*
X012134Y016712D01*
X010893Y016712D01*
X010893Y016612D01*
X012134Y016612D01*
X012134Y015773D01*
X012161Y015769D01*
X012161Y015769D01*
X012342Y015612D01*
X012342Y015612D01*
X012410Y015382D01*
X012410Y015382D01*
X012342Y015152D01*
X012161Y014995D01*
X012161Y014995D01*
X012161Y014995D01*
X012034Y014977D01*
X012034Y014515D01*
X012028Y014508D01*
X012028Y014371D01*
X012536Y014371D01*
X013698Y015534D01*
X013681Y015576D01*
X013681Y015739D01*
X013743Y015890D01*
X013858Y016005D01*
X013901Y016023D01*
X013901Y016108D01*
X013787Y016108D01*
X013711Y016184D01*
X013711Y016542D01*
X013732Y016563D01*
X013711Y016584D01*
X013711Y016942D01*
X013787Y017018D01*
X013901Y017018D01*
X013901Y017084D01*
X013858Y017101D01*
X013743Y017217D01*
X013681Y017367D01*
X013681Y017531D01*
X013743Y017681D01*
X013858Y017797D01*
X014009Y017859D01*
X014172Y017859D01*
X014323Y017797D01*
X014438Y017681D01*
X014481Y017579D01*
X014484Y018966D01*
X008369Y018966D01*
X008376Y018960D01*
X008514Y018720D01*
X008585Y018453D01*
X008585Y018177D01*
X008514Y017910D01*
X008376Y017670D01*
X008180Y017475D01*
X007941Y017337D01*
X007674Y017265D01*
X007397Y017265D01*
X007130Y017337D01*
X006891Y017475D01*
X006885Y017481D01*
X006885Y017443D02*
X006946Y017443D01*
X006885Y017344D02*
X007117Y017344D01*
X006885Y017246D02*
X009551Y017246D01*
X009551Y017344D02*
X007954Y017344D01*
X008125Y017443D02*
X009551Y017443D01*
X009551Y017541D02*
X008247Y017541D01*
X008345Y017640D02*
X009409Y017640D01*
X009346Y017738D02*
X008415Y017738D01*
X008472Y017837D02*
X009293Y017837D01*
X009293Y017935D02*
X008521Y017935D01*
X008547Y018034D02*
X009293Y018034D01*
X009339Y018132D02*
X008574Y018132D01*
X008585Y018231D02*
X009402Y018231D01*
X009569Y018329D02*
X008585Y018329D01*
X008585Y018428D02*
X014483Y018428D01*
X014483Y018526D02*
X008566Y018526D01*
X008540Y018625D02*
X014483Y018625D01*
X014484Y018723D02*
X008512Y018723D01*
X008455Y018822D02*
X014484Y018822D01*
X014484Y018920D02*
X008398Y018920D01*
X009640Y018362D02*
X009640Y018362D01*
X009868Y018329D02*
X011872Y018329D01*
X011726Y018263D02*
X011726Y018263D01*
X011705Y018231D02*
X009990Y018231D01*
X010059Y018171D02*
X010059Y018171D01*
X010070Y018132D02*
X011642Y018132D01*
X012134Y017541D02*
X013685Y017541D01*
X013681Y017443D02*
X012134Y017443D01*
X012134Y017344D02*
X013690Y017344D01*
X013731Y017246D02*
X012134Y017246D01*
X012134Y017147D02*
X013812Y017147D01*
X013901Y017049D02*
X012134Y017049D01*
X012134Y016950D02*
X013719Y016950D01*
X013711Y016852D02*
X012134Y016852D01*
X012134Y016753D02*
X013711Y016753D01*
X013711Y016655D02*
X010893Y016655D01*
X010893Y016612D02*
X010893Y015252D01*
X011583Y015252D01*
X011619Y015196D01*
X011038Y015196D01*
X011009Y015167D01*
X011009Y014673D01*
X011004Y014668D01*
X011004Y013694D01*
X011045Y013654D01*
X011045Y013531D01*
X011045Y013391D01*
X011017Y013363D01*
X010967Y013243D01*
X010967Y013112D01*
X011017Y012991D01*
X011109Y012899D01*
X011230Y012849D01*
X011361Y012849D01*
X011481Y012899D01*
X011573Y012991D01*
X011623Y013112D01*
X011623Y013243D01*
X011573Y013363D01*
X011545Y013391D01*
X011545Y013483D01*
X011546Y013483D01*
X011545Y013532D01*
X011545Y013581D01*
X011545Y013582D01*
X011545Y013618D01*
X011952Y013618D01*
X012028Y013694D01*
X012028Y013991D01*
X012693Y013991D01*
X013967Y015265D01*
X014009Y015248D01*
X014172Y015248D01*
X014323Y015310D01*
X014438Y015425D01*
X014475Y015514D01*
X014470Y013835D01*
X014180Y013835D01*
X014180Y013365D01*
X014080Y013365D01*
X014080Y013265D01*
X013610Y013265D01*
X013610Y012925D01*
X013620Y012887D01*
X013640Y012853D01*
X013668Y012825D01*
X013702Y012805D01*
X013740Y012795D01*
X013982Y012795D01*
X013847Y012739D01*
X013706Y012598D01*
X013630Y012415D01*
X013630Y012216D01*
X013706Y012032D01*
X013847Y011891D01*
X014031Y011815D01*
X013847Y011739D01*
X013706Y011598D01*
X013694Y011569D01*
X012960Y011576D01*
X012959Y011577D01*
X012954Y011577D01*
X012096Y012435D01*
X012094Y012438D01*
X012060Y012470D01*
X012028Y012503D01*
X012025Y012505D01*
X012022Y012507D01*
X011979Y012524D01*
X011936Y012542D01*
X011932Y012542D01*
X011929Y012543D01*
X011883Y012542D01*
X011836Y012542D01*
X011833Y012540D01*
X011524Y012533D01*
X011524Y012719D01*
X011448Y012796D01*
X011086Y012796D01*
X010698Y013183D01*
X010698Y013223D01*
X010648Y013344D01*
X010632Y013360D01*
X010637Y013456D01*
X010640Y013462D01*
X010640Y013505D01*
X010642Y013548D01*
X010640Y013555D01*
X010640Y013653D01*
X010681Y013694D01*
X010681Y014668D01*
X010676Y014673D01*
X010676Y015167D01*
X010647Y015196D01*
X010077Y015196D01*
X010094Y015252D01*
X010793Y015252D01*
X010793Y016612D01*
X010893Y016612D01*
X010893Y016556D02*
X010793Y016556D01*
X010793Y016458D02*
X010893Y016458D01*
X010893Y016359D02*
X010793Y016359D01*
X010793Y016261D02*
X010893Y016261D01*
X010893Y016162D02*
X010793Y016162D01*
X010793Y016064D02*
X010893Y016064D01*
X010893Y015965D02*
X010793Y015965D01*
X010793Y015867D02*
X010893Y015867D01*
X010893Y015768D02*
X010793Y015768D01*
X010793Y015670D02*
X010893Y015670D01*
X010893Y015571D02*
X010793Y015571D01*
X010793Y015473D02*
X010893Y015473D01*
X010893Y015374D02*
X010793Y015374D01*
X010793Y015276D02*
X010893Y015276D01*
X011020Y015177D02*
X010665Y015177D01*
X010676Y015079D02*
X011009Y015079D01*
X011009Y014980D02*
X010676Y014980D01*
X010676Y014882D02*
X011009Y014882D01*
X011009Y014783D02*
X010676Y014783D01*
X010676Y014685D02*
X011009Y014685D01*
X011004Y014586D02*
X010681Y014586D01*
X010681Y014488D02*
X011004Y014488D01*
X011004Y014389D02*
X010681Y014389D01*
X010681Y014291D02*
X011004Y014291D01*
X011004Y014192D02*
X010681Y014192D01*
X010681Y014094D02*
X011004Y014094D01*
X011004Y013995D02*
X010681Y013995D01*
X010681Y013897D02*
X011004Y013897D01*
X011004Y013798D02*
X010681Y013798D01*
X010681Y013700D02*
X011004Y013700D01*
X011045Y013601D02*
X010640Y013601D01*
X010640Y013503D02*
X011045Y013503D01*
X011045Y013404D02*
X010634Y013404D01*
X010664Y013306D02*
X010993Y013306D01*
X010967Y013207D02*
X010698Y013207D01*
X010772Y013109D02*
X010969Y013109D01*
X011009Y013010D02*
X010871Y013010D01*
X010969Y012912D02*
X011097Y012912D01*
X011068Y012813D02*
X013688Y012813D01*
X013614Y012912D02*
X011494Y012912D01*
X011581Y013010D02*
X013610Y013010D01*
X013610Y013109D02*
X011622Y013109D01*
X011623Y013207D02*
X013610Y013207D01*
X013610Y013365D02*
X014080Y013365D01*
X014080Y013835D01*
X013740Y013835D01*
X013702Y013825D01*
X013668Y013805D01*
X013640Y013777D01*
X013620Y013743D01*
X013610Y013705D01*
X013610Y013365D01*
X013610Y013404D02*
X011545Y013404D01*
X011546Y013503D02*
X013610Y013503D01*
X013610Y013601D02*
X011545Y013601D01*
X011597Y013306D02*
X014080Y013306D01*
X014080Y013404D02*
X014180Y013404D01*
X014180Y013503D02*
X014080Y013503D01*
X014080Y013601D02*
X014180Y013601D01*
X014180Y013700D02*
X014080Y013700D01*
X014080Y013798D02*
X014180Y013798D01*
X014470Y013897D02*
X012028Y013897D01*
X012028Y013798D02*
X013661Y013798D01*
X013610Y013700D02*
X012028Y013700D01*
X012028Y014389D02*
X012554Y014389D01*
X012652Y014488D02*
X012028Y014488D01*
X012034Y014586D02*
X012751Y014586D01*
X012849Y014685D02*
X012034Y014685D01*
X012034Y014783D02*
X012948Y014783D01*
X013046Y014882D02*
X012034Y014882D01*
X012058Y014980D02*
X013145Y014980D01*
X013243Y015079D02*
X012258Y015079D01*
X012349Y015177D02*
X013342Y015177D01*
X013440Y015276D02*
X012378Y015276D01*
X012407Y015374D02*
X013539Y015374D01*
X013637Y015473D02*
X012383Y015473D01*
X012354Y015571D02*
X013683Y015571D01*
X013681Y015670D02*
X012275Y015670D01*
X012162Y015768D02*
X013693Y015768D01*
X013734Y015867D02*
X012134Y015867D01*
X012134Y015965D02*
X013819Y015965D01*
X013901Y016064D02*
X012134Y016064D01*
X012134Y016162D02*
X013733Y016162D01*
X013711Y016261D02*
X012134Y016261D01*
X012134Y016359D02*
X013711Y016359D01*
X013711Y016458D02*
X012134Y016458D01*
X012134Y016556D02*
X013725Y016556D01*
X013726Y017640D02*
X012279Y017640D01*
X012370Y017738D02*
X013800Y017738D01*
X013956Y017837D02*
X012399Y017837D01*
X012428Y017935D02*
X014482Y017935D01*
X014481Y017837D02*
X014226Y017837D01*
X014381Y017738D02*
X014481Y017738D01*
X014481Y017640D02*
X014455Y017640D01*
X014482Y018034D02*
X012402Y018034D01*
X012373Y018132D02*
X014482Y018132D01*
X014482Y018231D02*
X012293Y018231D01*
X012171Y018329D02*
X014483Y018329D01*
X014458Y015473D02*
X014475Y015473D01*
X014475Y015374D02*
X014387Y015374D01*
X014474Y015276D02*
X014240Y015276D01*
X014474Y015177D02*
X013879Y015177D01*
X013781Y015079D02*
X014474Y015079D01*
X014473Y014980D02*
X013682Y014980D01*
X013584Y014882D02*
X014473Y014882D01*
X014473Y014783D02*
X013485Y014783D01*
X013387Y014685D02*
X014473Y014685D01*
X014472Y014586D02*
X013288Y014586D01*
X013190Y014488D02*
X014472Y014488D01*
X014472Y014389D02*
X013091Y014389D01*
X012993Y014291D02*
X014472Y014291D01*
X014471Y014192D02*
X012894Y014192D01*
X012796Y014094D02*
X014471Y014094D01*
X014471Y013995D02*
X012697Y013995D01*
X011994Y012518D02*
X013673Y012518D01*
X013632Y012419D02*
X012112Y012419D01*
X012210Y012321D02*
X013630Y012321D01*
X013630Y012222D02*
X012309Y012222D01*
X012407Y012124D02*
X013668Y012124D01*
X013713Y012025D02*
X012506Y012025D01*
X012604Y011927D02*
X013811Y011927D01*
X013838Y011730D02*
X012801Y011730D01*
X012703Y011828D02*
X013999Y011828D01*
X014031Y011815D02*
X014229Y011815D01*
X014413Y011739D01*
X014464Y011688D01*
X014465Y011943D01*
X014413Y011891D01*
X014229Y011815D01*
X014031Y011815D01*
X014261Y011828D02*
X014465Y011828D01*
X014465Y011730D02*
X014422Y011730D01*
X014449Y011927D02*
X014465Y011927D01*
X013823Y012715D02*
X011524Y012715D01*
X011524Y012616D02*
X013724Y012616D01*
X013739Y011631D02*
X012900Y011631D01*
X012193Y010548D02*
X011544Y010548D01*
X011544Y010646D02*
X012095Y010646D01*
X011996Y010745D02*
X011528Y010745D01*
X011524Y010843D02*
X011898Y010843D01*
X011757Y010942D02*
X011524Y010942D01*
X011544Y010449D02*
X012292Y010449D01*
X012390Y010351D02*
X011544Y010351D01*
X011544Y010154D02*
X012587Y010154D01*
X012489Y010252D02*
X011148Y010252D01*
X011148Y010154D02*
X011048Y010154D01*
X011048Y010252D02*
X010343Y010252D01*
X010343Y010154D02*
X010653Y010154D01*
X010653Y010055D02*
X010343Y010055D01*
X010343Y009957D02*
X010653Y009957D01*
X010656Y009858D02*
X010411Y009858D01*
X010540Y009760D02*
X010728Y009760D01*
X010670Y009661D02*
X012109Y009661D01*
X012109Y009640D02*
X012150Y009541D01*
X012226Y009465D01*
X012324Y009424D01*
X012393Y009424D01*
X013743Y008073D01*
X013685Y008015D01*
X013685Y007435D01*
X013706Y007414D01*
X013706Y007209D01*
X013685Y007188D01*
X013685Y006786D01*
X013642Y006743D01*
X013535Y006743D01*
X013532Y006747D01*
X013532Y007168D01*
X013530Y007169D01*
X013530Y007392D01*
X013541Y007411D01*
X013552Y007449D01*
X013552Y007635D01*
X013176Y007635D01*
X013176Y007735D01*
X013552Y007735D01*
X013552Y007921D01*
X013541Y007960D01*
X013522Y007994D01*
X013494Y008022D01*
X013460Y008042D01*
X013421Y008052D01*
X013176Y008052D01*
X013176Y007735D01*
X013076Y007735D01*
X013076Y007635D01*
X012700Y007635D01*
X012700Y007449D01*
X012711Y007411D01*
X012722Y007392D01*
X012722Y007169D01*
X012720Y007168D01*
X012720Y006627D01*
X012797Y006551D01*
X013218Y006551D01*
X013281Y006489D01*
X013386Y006383D01*
X013791Y006383D01*
X013940Y006532D01*
X014341Y006532D01*
X014417Y006608D01*
X014450Y006608D01*
X014417Y006608D02*
X014417Y007188D01*
X014397Y007209D01*
X014397Y007414D01*
X014417Y007435D01*
X014417Y008015D01*
X014341Y008091D01*
X014235Y008091D01*
X014203Y008123D01*
X014158Y008174D01*
X014151Y008175D01*
X012647Y009679D01*
X012647Y009747D01*
X012606Y009845D01*
X012530Y009921D01*
X012432Y009962D01*
X012324Y009962D01*
X012226Y009921D01*
X012150Y009845D01*
X012109Y009747D01*
X012109Y009640D01*
X012141Y009563D02*
X010799Y009563D01*
X010928Y009464D02*
X012227Y009464D01*
X012451Y009366D02*
X011057Y009366D01*
X011186Y009267D02*
X012549Y009267D01*
X012648Y009169D02*
X011316Y009169D01*
X011445Y009070D02*
X012746Y009070D01*
X012845Y008972D02*
X011574Y008972D01*
X011703Y008873D02*
X012943Y008873D01*
X013042Y008775D02*
X011766Y008775D01*
X011784Y008676D02*
X013140Y008676D01*
X013239Y008578D02*
X011782Y008578D01*
X011782Y008479D02*
X013337Y008479D01*
X013436Y008381D02*
X011782Y008381D01*
X011782Y008282D02*
X013534Y008282D01*
X013633Y008184D02*
X011782Y008184D01*
X011782Y008085D02*
X013731Y008085D01*
X013685Y007987D02*
X013526Y007987D01*
X013552Y007888D02*
X013685Y007888D01*
X013685Y007790D02*
X013552Y007790D01*
X013685Y007691D02*
X013176Y007691D01*
X013176Y007790D02*
X013076Y007790D01*
X013076Y007735D02*
X013076Y008052D01*
X012831Y008052D01*
X012793Y008042D01*
X012758Y008022D01*
X012730Y007994D01*
X012711Y007960D01*
X012700Y007921D01*
X012700Y007735D01*
X013076Y007735D01*
X013076Y007691D02*
X011782Y007691D01*
X011782Y007593D02*
X012700Y007593D01*
X012700Y007494D02*
X011782Y007494D01*
X011782Y007396D02*
X012719Y007396D01*
X012722Y007297D02*
X011782Y007297D01*
X011782Y007199D02*
X012722Y007199D01*
X012720Y007100D02*
X011905Y007100D01*
X012003Y007002D02*
X012720Y007002D01*
X012720Y006903D02*
X012044Y006903D01*
X012085Y006805D02*
X012720Y006805D01*
X012720Y006706D02*
X012095Y006706D01*
X012095Y006608D02*
X012740Y006608D01*
X013126Y006898D02*
X013461Y006563D01*
X013717Y006563D01*
X014051Y006898D01*
X013685Y006903D02*
X013532Y006903D01*
X013532Y006805D02*
X013685Y006805D01*
X013685Y007002D02*
X013532Y007002D01*
X013532Y007100D02*
X013685Y007100D01*
X013696Y007199D02*
X013530Y007199D01*
X013530Y007297D02*
X013706Y007297D01*
X013706Y007396D02*
X013533Y007396D01*
X013552Y007494D02*
X013685Y007494D01*
X013685Y007593D02*
X013552Y007593D01*
X013176Y007888D02*
X013076Y007888D01*
X013076Y007987D02*
X013176Y007987D01*
X012726Y007987D02*
X011782Y007987D01*
X011782Y007888D02*
X012700Y007888D01*
X012700Y007790D02*
X011782Y007790D01*
X011202Y007790D02*
X006898Y007790D01*
X006898Y007888D02*
X011202Y007888D01*
X011202Y007987D02*
X006898Y007987D01*
X006898Y008085D02*
X011202Y008085D01*
X011202Y008184D02*
X006898Y008184D01*
X006898Y008282D02*
X011202Y008282D01*
X011202Y008381D02*
X006897Y008381D01*
X006897Y008479D02*
X011202Y008479D01*
X011134Y008578D02*
X006897Y008578D01*
X006897Y008676D02*
X011005Y008676D01*
X010876Y008775D02*
X006897Y008775D01*
X006897Y008873D02*
X010746Y008873D01*
X010617Y008972D02*
X006897Y008972D01*
X006897Y009070D02*
X010488Y009070D01*
X010359Y009169D02*
X006896Y009169D01*
X006896Y009267D02*
X010230Y009267D01*
X010101Y009366D02*
X006896Y009366D01*
X006896Y009464D02*
X009971Y009464D01*
X009842Y009563D02*
X006896Y009563D01*
X006896Y009661D02*
X009713Y009661D01*
X009646Y009760D02*
X006896Y009760D01*
X006895Y009858D02*
X009492Y009858D01*
X009492Y009957D02*
X006895Y009957D01*
X006895Y010055D02*
X008810Y010055D01*
X008732Y010154D02*
X006895Y010154D01*
X006895Y010252D02*
X008702Y010252D01*
X008702Y010351D02*
X006895Y010351D01*
X006895Y010449D02*
X008702Y010449D01*
X008702Y010548D02*
X006895Y010548D01*
X006894Y010646D02*
X008702Y010646D01*
X008702Y010745D02*
X006894Y010745D01*
X006894Y010843D02*
X008702Y010843D01*
X008702Y010942D02*
X006894Y010942D01*
X006894Y011040D02*
X008702Y011040D01*
X008702Y011139D02*
X006894Y011139D01*
X006894Y011237D02*
X008702Y011237D01*
X008702Y011336D02*
X006893Y011336D01*
X006893Y011434D02*
X008702Y011434D01*
X008702Y011533D02*
X006893Y011533D01*
X006893Y011631D02*
X008702Y011631D01*
X008702Y011730D02*
X006893Y011730D01*
X006893Y011828D02*
X008702Y011828D01*
X008702Y011927D02*
X006893Y011927D01*
X006892Y012025D02*
X008702Y012025D01*
X008702Y012124D02*
X006892Y012124D01*
X006892Y012222D02*
X008702Y012222D01*
X008702Y012321D02*
X006892Y012321D01*
X006892Y012419D02*
X008702Y012419D01*
X008702Y012518D02*
X006892Y012518D01*
X006892Y012616D02*
X008702Y012616D01*
X008731Y012715D02*
X006892Y012715D01*
X006891Y012813D02*
X008809Y012813D01*
X008907Y012912D02*
X006891Y012912D01*
X006891Y013010D02*
X009006Y013010D01*
X009072Y013109D02*
X006891Y013109D01*
X006891Y013207D02*
X009149Y013207D01*
X009301Y013306D02*
X006891Y013306D01*
X006891Y013404D02*
X009400Y013404D01*
X009498Y013503D02*
X006890Y013503D01*
X006890Y013601D02*
X009597Y013601D01*
X009655Y013700D02*
X006890Y013700D01*
X006890Y013798D02*
X009655Y013798D01*
X009655Y013897D02*
X006890Y013897D01*
X006890Y013995D02*
X009657Y013995D01*
X009657Y014094D02*
X006890Y014094D01*
X006890Y014192D02*
X009657Y014192D01*
X009657Y014291D02*
X006889Y014291D01*
X006889Y014389D02*
X009657Y014389D01*
X009657Y014488D02*
X006889Y014488D01*
X006889Y014586D02*
X009651Y014586D01*
X009651Y014685D02*
X006889Y014685D01*
X006889Y014783D02*
X009651Y014783D01*
X009651Y014882D02*
X006889Y014882D01*
X006888Y014980D02*
X009555Y014980D01*
X009398Y015079D02*
X006888Y015079D01*
X006888Y015177D02*
X009335Y015177D01*
X009293Y015276D02*
X006888Y015276D01*
X006888Y015374D02*
X009293Y015374D01*
X009293Y015473D02*
X006888Y015473D01*
X006888Y015571D02*
X009350Y015571D01*
X009413Y015670D02*
X006887Y015670D01*
X006887Y015768D02*
X009551Y015768D01*
X009551Y015867D02*
X006887Y015867D01*
X006887Y015965D02*
X009551Y015965D01*
X009551Y016064D02*
X006887Y016064D01*
X006887Y016162D02*
X009551Y016162D01*
X009551Y016261D02*
X006887Y016261D01*
X006887Y016359D02*
X009551Y016359D01*
X009551Y016458D02*
X006886Y016458D01*
X006886Y016556D02*
X009551Y016556D01*
X009551Y016753D02*
X006886Y016753D01*
X006886Y016655D02*
X010793Y016655D01*
X010793Y016753D02*
X010893Y016753D01*
X010893Y016852D02*
X010793Y016852D01*
X010793Y016950D02*
X010893Y016950D01*
X010893Y017049D02*
X010793Y017049D01*
X010793Y017147D02*
X010893Y017147D01*
X010893Y017246D02*
X010793Y017246D01*
X010793Y017344D02*
X010893Y017344D01*
X010893Y017443D02*
X010793Y017443D01*
X010793Y017541D02*
X010893Y017541D01*
X010893Y017640D02*
X010793Y017640D01*
X010793Y017738D02*
X010893Y017738D01*
X010893Y017837D02*
X010793Y017837D01*
X010793Y017935D02*
X010893Y017935D01*
X010893Y018034D02*
X010793Y018034D01*
X009551Y017147D02*
X006885Y017147D01*
X006886Y017049D02*
X009551Y017049D01*
X009551Y016950D02*
X006886Y016950D01*
X006886Y016852D02*
X009551Y016852D01*
X010023Y013207D02*
X010042Y013207D01*
X010042Y013109D02*
X009924Y013109D01*
X009826Y013010D02*
X010076Y013010D01*
X010152Y012912D02*
X009727Y012912D01*
X009867Y012813D02*
X009967Y012813D01*
X009967Y012715D02*
X009867Y012715D01*
X009867Y012616D02*
X009967Y012616D01*
X009967Y012518D02*
X009867Y012518D01*
X009867Y012419D02*
X009967Y012419D01*
X009967Y012321D02*
X010673Y012321D01*
X010673Y012419D02*
X010363Y012419D01*
X010363Y012518D02*
X010656Y012518D01*
X010558Y012616D02*
X010363Y012616D01*
X010355Y012715D02*
X010459Y012715D01*
X010361Y012813D02*
X010240Y012813D01*
X009867Y012321D02*
X009282Y012321D01*
X009282Y012419D02*
X009472Y012419D01*
X009472Y012518D02*
X009333Y012518D01*
X009432Y012616D02*
X009472Y012616D01*
X009282Y012222D02*
X009867Y012222D01*
X009867Y012124D02*
X009967Y012124D01*
X009967Y012222D02*
X010673Y012222D01*
X010673Y012124D02*
X010363Y012124D01*
X010363Y012025D02*
X010673Y012025D01*
X010673Y011927D02*
X010363Y011927D01*
X010355Y011828D02*
X010673Y011828D01*
X010688Y011730D02*
X010346Y011730D01*
X010363Y011631D02*
X010673Y011631D01*
X010673Y011533D02*
X010363Y011533D01*
X010363Y011434D02*
X010673Y011434D01*
X010673Y011336D02*
X010363Y011336D01*
X010363Y011139D02*
X010673Y011139D01*
X010673Y011237D02*
X009967Y011237D01*
X009967Y011336D02*
X009867Y011336D01*
X009867Y011434D02*
X009967Y011434D01*
X009967Y011533D02*
X009867Y011533D01*
X009867Y011631D02*
X009967Y011631D01*
X009967Y011730D02*
X009867Y011730D01*
X009867Y011828D02*
X009967Y011828D01*
X009967Y011927D02*
X009867Y011927D01*
X009867Y012025D02*
X009967Y012025D01*
X009472Y012025D02*
X009282Y012025D01*
X009282Y011927D02*
X009472Y011927D01*
X009480Y011828D02*
X009282Y011828D01*
X009282Y011730D02*
X009488Y011730D01*
X009472Y011631D02*
X009282Y011631D01*
X009282Y011533D02*
X009472Y011533D01*
X009472Y011434D02*
X009282Y011434D01*
X009282Y011336D02*
X009472Y011336D01*
X009472Y011139D02*
X009282Y011139D01*
X009282Y011237D02*
X009867Y011237D01*
X009472Y011040D02*
X009282Y011040D01*
X009282Y010942D02*
X009472Y010942D01*
X009475Y010843D02*
X009282Y010843D01*
X009282Y010745D02*
X009506Y010745D01*
X009492Y010646D02*
X009282Y010646D01*
X010329Y010745D02*
X010669Y010745D01*
X010673Y010843D02*
X010360Y010843D01*
X010363Y010942D02*
X010673Y010942D01*
X010673Y011040D02*
X010363Y011040D01*
X010343Y010646D02*
X010653Y010646D01*
X010653Y010548D02*
X010343Y010548D01*
X010343Y010449D02*
X010653Y010449D01*
X010653Y010351D02*
X010343Y010351D01*
X011048Y010055D02*
X011148Y010055D01*
X011148Y009957D02*
X011048Y009957D01*
X011048Y009858D02*
X011148Y009858D01*
X011148Y009760D02*
X011048Y009760D01*
X011468Y009760D02*
X012114Y009760D01*
X012163Y009858D02*
X011541Y009858D01*
X011544Y009957D02*
X012312Y009957D01*
X012444Y009957D02*
X013781Y009957D01*
X013696Y010055D02*
X011544Y010055D01*
X012378Y009693D02*
X014071Y008000D01*
X014051Y007725D01*
X014417Y007691D02*
X014453Y007691D01*
X014453Y007593D02*
X014417Y007593D01*
X014417Y007494D02*
X014453Y007494D01*
X014453Y007396D02*
X014397Y007396D01*
X014397Y007297D02*
X014452Y007297D01*
X014452Y007199D02*
X014406Y007199D01*
X014417Y007100D02*
X014452Y007100D01*
X014452Y007002D02*
X014417Y007002D01*
X014417Y006903D02*
X014451Y006903D01*
X014451Y006805D02*
X014417Y006805D01*
X014417Y006706D02*
X014451Y006706D01*
X014450Y006509D02*
X013917Y006509D01*
X013819Y006411D02*
X014450Y006411D01*
X014450Y006312D02*
X011995Y006312D01*
X012040Y006411D02*
X013358Y006411D01*
X013260Y006509D02*
X012081Y006509D01*
X011896Y006214D02*
X014449Y006214D01*
X014449Y006115D02*
X011782Y006115D01*
X011782Y006017D02*
X014449Y006017D01*
X014449Y005918D02*
X011782Y005918D01*
X011782Y005820D02*
X014448Y005820D01*
X014448Y005721D02*
X014197Y005721D01*
X014368Y005623D02*
X014448Y005623D01*
X013354Y005721D02*
X011759Y005721D01*
X011690Y005623D02*
X013184Y005623D01*
X013063Y005524D02*
X010046Y005524D01*
X010173Y005426D02*
X009888Y005426D01*
X009970Y005342D02*
X009800Y005172D01*
X009709Y004951D01*
X009709Y004711D01*
X009800Y004490D01*
X009970Y004320D01*
X010191Y004228D01*
X010431Y004228D01*
X010652Y004320D01*
X010822Y004490D01*
X010914Y004711D01*
X010914Y004951D01*
X010822Y005172D01*
X010652Y005342D01*
X010431Y005433D01*
X010191Y005433D01*
X009970Y005342D01*
X009956Y005327D02*
X009729Y005327D01*
X009713Y005229D02*
X009857Y005229D01*
X009783Y005130D02*
X009699Y005130D01*
X009658Y005032D02*
X009742Y005032D01*
X009709Y004933D02*
X009612Y004933D01*
X009709Y004835D02*
X009514Y004835D01*
X009363Y004736D02*
X009709Y004736D01*
X009739Y004638D02*
X006903Y004638D01*
X006902Y004736D02*
X008857Y004736D01*
X008707Y004835D02*
X006902Y004835D01*
X006902Y004933D02*
X008609Y004933D01*
X008563Y005032D02*
X006902Y005032D01*
X006902Y005130D02*
X008522Y005130D01*
X008508Y005229D02*
X006902Y005229D01*
X006902Y005327D02*
X008508Y005327D01*
X008517Y005426D02*
X006902Y005426D01*
X006901Y005524D02*
X008558Y005524D01*
X008599Y005623D02*
X006901Y005623D01*
X006901Y005721D02*
X008696Y005721D01*
X008831Y005820D02*
X006901Y005820D01*
X006901Y005918D02*
X009581Y005918D01*
X009702Y006041D02*
X009731Y006070D01*
X009731Y007253D01*
X009702Y007282D01*
X008519Y007282D01*
X008489Y007253D01*
X008489Y006070D01*
X008519Y006041D01*
X009702Y006041D01*
X009740Y006017D02*
X006901Y006017D01*
X006901Y006115D02*
X008489Y006115D01*
X008489Y006214D02*
X006900Y006214D01*
X006900Y006312D02*
X008489Y006312D01*
X008489Y006411D02*
X006900Y006411D01*
X006900Y006509D02*
X008489Y006509D01*
X008489Y006608D02*
X006900Y006608D01*
X006900Y006706D02*
X008489Y006706D01*
X008489Y006805D02*
X006900Y006805D01*
X006900Y006903D02*
X008489Y006903D01*
X008489Y007002D02*
X006899Y007002D01*
X006899Y007100D02*
X008489Y007100D01*
X008489Y007199D02*
X006899Y007199D01*
X006899Y007297D02*
X011202Y007297D01*
X011202Y007199D02*
X009731Y007199D01*
X009731Y007100D02*
X011079Y007100D01*
X010981Y007002D02*
X009731Y007002D01*
X009731Y006903D02*
X010940Y006903D01*
X010899Y006805D02*
X009731Y006805D01*
X009731Y006706D02*
X010890Y006706D01*
X010890Y006608D02*
X009731Y006608D01*
X009731Y006509D02*
X010903Y006509D01*
X010944Y006411D02*
X009731Y006411D01*
X009731Y006312D02*
X010989Y006312D01*
X011088Y006214D02*
X009731Y006214D01*
X009731Y006115D02*
X009915Y006115D01*
X009423Y005820D02*
X009390Y005820D01*
X010449Y005426D02*
X012964Y005426D01*
X012895Y005327D02*
X010667Y005327D01*
X010765Y005229D02*
X012838Y005229D01*
X012790Y005130D02*
X010839Y005130D01*
X010880Y005032D02*
X012764Y005032D01*
X012737Y004933D02*
X010914Y004933D01*
X010914Y004835D02*
X012726Y004835D01*
X012726Y004736D02*
X010914Y004736D01*
X010883Y004638D02*
X012726Y004638D01*
X012746Y004539D02*
X010842Y004539D01*
X010773Y004441D02*
X012772Y004441D01*
X012800Y004342D02*
X010675Y004342D01*
X010468Y004244D02*
X012857Y004244D01*
X012914Y004145D02*
X006903Y004145D01*
X006903Y004244D02*
X010154Y004244D01*
X009948Y004342D02*
X006903Y004342D01*
X006903Y004441D02*
X009849Y004441D01*
X009780Y004539D02*
X006903Y004539D01*
X006899Y007396D02*
X011202Y007396D01*
X011202Y007494D02*
X006899Y007494D01*
X006899Y007593D02*
X011202Y007593D01*
X011202Y007691D02*
X006898Y007691D01*
X009282Y012124D02*
X009472Y012124D01*
X012593Y009858D02*
X013926Y009858D01*
X014334Y009858D02*
X014459Y009858D01*
X014459Y009760D02*
X012642Y009760D01*
X012664Y009661D02*
X014459Y009661D01*
X014459Y009563D02*
X012763Y009563D01*
X012861Y009464D02*
X014458Y009464D01*
X014458Y009366D02*
X012960Y009366D01*
X013058Y009267D02*
X014458Y009267D01*
X014457Y009169D02*
X013157Y009169D01*
X013255Y009070D02*
X014457Y009070D01*
X014457Y008972D02*
X013354Y008972D01*
X013452Y008873D02*
X014457Y008873D01*
X014456Y008775D02*
X013551Y008775D01*
X013649Y008676D02*
X014456Y008676D01*
X014456Y008578D02*
X013748Y008578D01*
X013846Y008479D02*
X014456Y008479D01*
X014455Y008381D02*
X013945Y008381D01*
X014043Y008282D02*
X014455Y008282D01*
X014455Y008184D02*
X014142Y008184D01*
X014347Y008085D02*
X014455Y008085D01*
X014454Y007987D02*
X014417Y007987D01*
X014417Y007888D02*
X014454Y007888D01*
X014454Y007790D02*
X014417Y007790D01*
D21*
X009898Y006662D02*
X009110Y006662D01*
X008343Y006662D01*
X009091Y005992D02*
X009091Y007547D01*
D22*
X009110Y006662D03*
D23*
X009996Y005835D02*
X011492Y005835D01*
X011492Y008669D01*
X009917Y009870D01*
X009917Y010284D01*
X008992Y010284D01*
X008992Y012587D01*
X009366Y012961D01*
X009945Y013540D01*
X009945Y013914D01*
X009996Y005835D02*
X009110Y005284D01*
D24*
X012772Y010323D02*
X011827Y011268D01*
X011098Y011268D01*
X011098Y012272D02*
X011886Y012292D01*
X012850Y011327D01*
X012910Y011327D01*
X014130Y011315D01*
X014106Y012311D02*
X014110Y012315D01*
X014130Y010315D02*
X012772Y010323D01*
X011098Y012272D02*
X011098Y012429D01*
X010370Y013158D01*
X010390Y013512D01*
X010390Y014181D01*
X010394Y014181D01*
X009945Y014181D02*
X009945Y013914D01*
X011291Y014181D02*
X011295Y013532D01*
X011295Y013177D01*
D25*
X011295Y013177D03*
X010370Y013158D03*
X009366Y012961D03*
X011827Y011268D03*
D26*
X011740Y014181D02*
X012614Y014181D01*
X014091Y015658D01*
X014091Y016363D01*
X014091Y016763D02*
X014091Y017449D01*
D27*
X014091Y017449D03*
X014091Y015658D03*
D28*
X011492Y006662D03*
X010311Y004831D03*
X009110Y005284D03*
M02*
